<svg xmlns="http://www.w3.org/2000/svg" width="512" height="512" viewBox="0 0 512 512">
  <g fill="none" stroke="#ffffff" stroke-width="1.3" stroke-linecap="round" stroke-linejoin="round" opacity="0.22">
    <!-- Row 1 -->
    <path d="M 40,40 h 40 a 12,12 0 0 1 12,12 v 18 a 12,12 0 0 1 -12,12 h -18 l -14,12 v -12 h -8 a 12,12 0 0 1 -12,-12 v -18 a 12,12 0 0 1 12,-12 z" />
    <path d="M 180,50 c -7,-14 -28,-14 -35,0 c -7,-14 -28,-14 -35,0 c -7,14 7,28 35,48 c 28,-20 42,-34 35,-48 z" />
    <rect x="270" y="40" width="45" height="32" rx="6" />
    <circle cx="292.5" cy="56" r="8" />
    <path d="M 285,40 v -5 h 15 v 5" />
    <path d="M 410,40 l 4,10 h 10 l -8,6 l 3,10 l -9,-6 l -9,6 l 3,-10 l -8,-6 h 10 z" />

    <!-- Row 2 -->
    <path d="M 60,160 v 32 a 8,8 0 1 1 -8,-8 h 8 v -24 h 20 v 24 a 8,8 0 1 1 -8,-8 h 8" />
    <rect x="170" y="160" width="50" height="30" rx="10" />
    <path d="M 182,175 h 10 M 187,170 v 10" />
    <circle cx="206" cy="171" r="2" fill="#fff" />
    <circle cx="212" cy="178" r="2" fill="#fff" />
    <path d="M 290,160 h 26 v 22 a 10,10 0 0 1 -10,10 h -6 a 10,10 0 0 1 -10,-10 z" />
    <path d="M 316,164 h 6 a 5,5 0 0 1 5,5 v 2 a 5,5 0 0 1 -5,5 h -6" />
    <path d="M 410,165 l -8,-14 l 6,3 l 14,-3 l 14,3 l 6,-3 l -8,14 a 16,16 0 1 1 -24,0 z" />
    <circle cx="414" cy="175" r="1.5" fill="#fff" />
    <circle cx="422" cy="175" r="1.5" fill="#fff" />

    <!-- Row 3 -->
    <circle cx="65" cy="290" r="20" />
    <circle cx="57" cy="284" r="2" fill="#fff" />
    <circle cx="73" cy="284" r="2" fill="#fff" />
    <path d="M 55,296 a 10,10 0 0 0 20,0" />
    <circle cx="185" cy="290" r="6" />
    <circle cx="185" cy="276" r="6" />
    <circle cx="199" cy="290" r="6" />
    <circle cx="185" cy="304" r="6" />
    <circle cx="171" cy="290" r="6" />
    <rect x="290" y="270" width="26" height="42" rx="5" />
    <line x1="290" y1="280" x2="316" y2="280" />
    <line x1="290" y1="302" x2="316" y2="302" />
    <circle cx="303" cy="307" r="1.5" fill="#fff" />
    <rect x="400" y="282" width="26" height="24" rx="4" />
    <path d="M 406,282 v -7 a 7,7 0 0 1 14,0 v 7" />

    <!-- Row 4 -->
    <circle cx="65" cy="420" r="18" />
    <ellipse cx="65" cy="420" rx="24" ry="7" transform="rotate(-15 65 420)" />
    <path d="M 170,430 l 40,-26 l -16,32 l -5,-8 l -10,-3 z" />
    <path d="M 295,405 a 14,14 0 0 1 14,20 l -3,5 h -22 l -3,-5 a 14,14 0 0 1 14,-20 z" />
    <line x1="298" y1="436" x2="306" y2="436" />
    <path d="M 400,430 h 8 v -16 h -8 z M 408,430 h 16 a 4,4 0 0 0 4,-4 l -3,-14 a 4,4 0 0 0 -4,-3 h -8 v -6 a 4,4 0 0 0 -4,-4 l -5,7 v 24" />
  </g>
</svg>
