<svg viewBox="0 0 200 200" fill="none" xmlns="http://www.w3.org/2000/svg">
  <defs>
    <linearGradient id="mhDarkNavyGrad" x1="0%" y1="0%" x2="100%" y2="100%">
      <stop offset="0%" stopColor="#0a369d" />
      <stop offset="50%" stopColor="#0048ba" />
      <stop offset="100%" stopColor="#001858" />
    </linearGradient>

    <linearGradient id="mhCyanGrad" x1="0%" y1="0%" x2="100%" y2="100%">
      <stop offset="0%" stopColor="#00f2fe" />
      <stop offset="40%" stopColor="#00c4cc" />
      <stop offset="100%" stopColor="#0077b6" />
    </linearGradient>
  </defs>

  {/* White Squircle Background Card */}
  <rect width="200" height="200" rx="46" fill="#ffffff" />

  {/* LEFT VERTICAL CAPSULE STEM */}
  <path
    fillRule="evenodd"
    clipRule="evenodd"
    d="M 44 28 C 32 28 24 36 24 48 L 24 152 C 24 164 32 172 44 172 C 56 172 64 164 64 152 L 64 48 C 64 36 56 28 44 28 Z M 44 40 C 38 40 34 44 34 50 L 34 150 C 34 156 38 160 44 160 C 50 160 54 156 54 150 L 54 50 C 54 44 50 40 44 40 Z"
    fill="url(#mhDarkNavyGrad)"
  />

  {/* RIGHT VERTICAL STEM */}
  <path
    fillRule="evenodd"
    clipRule="evenodd"
    d="M 152 68 C 140 68 132 76 132 88 L 132 152 C 132 164 140 172 152 172 C 164 172 172 164 172 152 L 172 88 C 172 76 164 68 152 68 Z M 152 80 C 146 80 142 84 142 90 L 142 150 C 142 156 146 160 152 160 C 158 160 162 156 162 150 L 162 90 C 162 84 158 80 152 80 Z"
    fill="url(#mhDarkNavyGrad)"
  />

  {/* FLOWING CYAN 'M' WAVE SWOOSH WITH SHARP TOP-RIGHT FLAME TIP */}
  <path
    d="M 28 128 C 50 160 85 162 108 132 C 128 106 148 78 174 62 C 152 78 128 116 106 138 C 85 158 55 142 28 128 Z"
    fill="url(#mhCyanGrad)"
  />

  {/* TOP-RIGHT CHAT BUBBLE ICON */}
  <g transform="translate(138, 42)">
    <circle cx="0" cy="0" r="22" fill="url(#mhCyanGrad)" />
    <path d="M -13 14 L -21 23 L -5 20 Z" fill="url(#mhCyanGrad)" />
    <circle cx="0" cy="0" r="11" fill="#ffffff" />
  </g>
</svg>
