<svg viewBox="0 0 200 200" fill="none" xmlns="http://www.w3.org/2000/svg">
  <defs>
    <linearGradient id="mhDarkNavyGrad" x1="0%" y1="0%" x2="100%" y2="100%">
      <stop offset="0%" stopColor="#08309b" />
      <stop offset="60%" stopColor="#0044b3" />
      <stop offset="100%" stopColor="#001858" />
    </linearGradient>

    <linearGradient id="mhCyanWaveGrad" x1="0%" y1="0%" x2="100%" y2="100%">
      <stop offset="0%" stopColor="#00f2fe" />
      <stop offset="35%" stopColor="#00c4cc" />
      <stop offset="75%" stopColor="#0096c7" />
      <stop offset="100%" stopColor="#0077b6" />
    </linearGradient>

    <linearGradient id="mhBubbleGrad" x1="0%" y1="0%" x2="100%" y2="100%">
      <stop offset="0%" stopColor="#00f2fe" />
      <stop offset="100%" stopColor="#00c4cc" />
    </linearGradient>
  </defs>

  {/* White Squircle Background Card */}
  <rect width="200" height="200" rx="46" fill="#ffffff" />

  {/* LEFT VERTICAL CAPSULE STEM */}
  <path
    fillRule="evenodd"
    clipRule="evenodd"
    d="M 48 26 C 35 26 26 35 26 48 L 26 152 C 26 165 35 174 48 174 C 61 174 70 165 70 152 L 70 48 C 70 35 61 26 48 26 Z M 48 40 C 42 40 38 44 38 50 L 38 150 C 38 156 42 160 48 160 C 54 160 58 156 58 150 L 58 50 C 58 44 54 40 48 40 Z"
    fill="url(#mhDarkNavyGrad)"
  />

  {/* RIGHT VERTICAL CAPSULE STEM */}
  <path
    fillRule="evenodd"
    clipRule="evenodd"
    d="M 152 26 C 139 26 130 35 130 48 L 130 152 C 130 165 139 174 152 174 C 165 174 174 165 174 152 L 174 48 C 174 35 165 26 152 26 Z M 152 40 C 146 40 142 44 142 50 L 142 150 C 142 156 146 160 152 160 C 158 160 162 156 162 150 L 162 50 C 162 44 158 40 152 40 Z"
    fill="url(#mhDarkNavyGrad)"
  />

  {/* CENTER FLOWING 'M' RIBBON WAVE */}
  <path
    d="M 48 102 C 64 80 78 126 100 124 C 120 122 134 88 156 72"
    stroke="url(#mhCyanWaveGrad)"
    strokeWidth="14"
    strokeLinecap="round"
    strokeLinejoin="round"
  />

  {/* TOP-RIGHT CHAT BUBBLE ICON */}
  <g transform="translate(142, 44)">
    <circle cx="0" cy="0" r="17" fill="url(#mhBubbleGrad)" />
    <path d="M -10 11 L -17 17 L -4 15 Z" fill="url(#mhBubbleGrad)" />
    <circle cx="0" cy="0" r="8.5" fill="#ffffff" />
  </g>
</svg>
